<svg width="21" height="15" viewBox="0 0 21 15" fill="none" xmlns="http://www.w3.org/2000/svg">
<path d="M9.7 11.68H3.34L2.12 15H0.64L5.74 1.2H7.32L12.4 15H10.92L9.7 11.68ZM9.28 10.52L6.52 2.96L3.76 10.52H9.28ZM16.0469 0.2V15H14.6469V0.2H16.0469ZM20.6172 0.2V15H19.2172V0.2H20.6172Z" fill="#FCF7F7"/>
<path d="M9.7 11.68L10.1693 11.5075L10.049 11.18H9.7V11.68ZM3.34 11.68V11.18H2.99105L2.87068 11.5075L3.34 11.68ZM2.12 15V15.5H2.46896L2.58932 15.1725L2.12 15ZM0.64 15L0.171003 14.8267L-0.0778347 15.5H0.64V15ZM5.74 1.2V0.699999H5.39173L5.271 1.02667L5.74 1.2ZM7.32 1.2L7.78922 1.02727L7.66874 0.699999H7.32V1.2ZM12.4 15V15.5H13.1169L12.8692 14.8273L12.4 15ZM10.92 15L10.4507 15.1725L10.571 15.5H10.92V15ZM9.28 10.52V11.02H9.99482L9.74968 10.3485L9.28 10.52ZM6.52 2.96L6.98968 2.78853L6.52 1.50202L6.05032 2.78853L6.52 2.96ZM3.76 10.52L3.29032 10.3485L3.04518 11.02H3.76V10.52ZM9.7 11.18H3.34V12.18H9.7V11.18ZM2.87068 11.5075L1.65068 14.8275L2.58932 15.1725L3.80932 11.8525L2.87068 11.5075ZM2.12 14.5H0.64V15.5H2.12V14.5ZM1.109 15.1733L6.209 1.37332L5.271 1.02667L0.171003 14.8267L1.109 15.1733ZM5.74 1.7H7.32V0.699999H5.74V1.7ZM6.85078 1.37273L11.9308 15.1727L12.8692 14.8273L7.78922 1.02727L6.85078 1.37273ZM12.4 14.5H10.92V15.5H12.4V14.5ZM11.3893 14.8275L10.1693 11.5075L9.23068 11.8525L10.4507 15.1725L11.3893 14.8275ZM9.74968 10.3485L6.98968 2.78853L6.05032 3.13147L8.81032 10.6915L9.74968 10.3485ZM6.05032 2.78853L3.29032 10.3485L4.22968 10.6915L6.98968 3.13147L6.05032 2.78853ZM3.76 11.02H9.28V10.02H3.76V11.02ZM16.0469 0.2H16.5469V-0.3H16.0469V0.2ZM16.0469 15V15.5H16.5469V15H16.0469ZM14.6469 15H14.1469V15.5H14.6469V15ZM14.6469 0.2V-0.3H14.1469V0.2H14.6469ZM15.5469 0.2V15H16.5469V0.2H15.5469ZM16.0469 14.5H14.6469V15.5H16.0469V14.5ZM15.1469 15V0.2H14.1469V15H15.1469ZM14.6469 0.7H16.0469V-0.3H14.6469V0.7ZM20.6172 0.2H21.1172V-0.3H20.6172V0.2ZM20.6172 15V15.5H21.1172V15H20.6172ZM19.2172 15H18.7172V15.5H19.2172V15ZM19.2172 0.2V-0.3H18.7172V0.2H19.2172ZM20.1172 0.2V15H21.1172V0.2H20.1172ZM20.6172 14.5H19.2172V15.5H20.6172V14.5ZM19.7172 15V0.2H18.7172V15H19.7172ZM19.2172 0.7H20.6172V-0.3H19.2172V0.7Z" fill="#F5F5F5"/>
</svg>
