<svg width="19" height="21" viewBox="0 0 19 21" fill="none" xmlns="http://www.w3.org/2000/svg">
<path d="M16.1075 10.8752H2.03364C1.73062 10.8755 1.43137 10.8216 1.15779 10.7174C0.88422 10.6132 0.643265 10.4613 0.452585 10.273C0.261904 10.0846 0.126329 9.86454 0.055795 9.62886C-0.0147393 9.39317 -0.0184459 9.14785 0.0449469 8.91087L1.91466 1.93715C2.06524 1.38974 2.44438 0.899654 2.98967 0.54756C3.53495 0.195466 4.21388 0.0023493 4.9147 0H13.2264C13.9284 0.00269156 14.6083 0.196778 15.1537 0.55021C15.6991 0.903642 16.0776 1.39528 16.2265 1.94394L18.0962 8.91087C18.1596 9.14785 18.1559 9.39317 18.0853 9.62886C18.0148 9.86454 17.8792 10.0846 17.6885 10.273C17.4978 10.4613 17.2569 10.6132 16.9833 10.7174C16.7097 10.8216 16.4105 10.8755 16.1075 10.8752ZM4.9147 1.3594C4.60294 1.36121 4.30119 1.44758 4.0588 1.6044C3.81642 1.76121 3.64775 1.97917 3.5804 2.22262L1.71069 9.19634C1.7006 9.23483 1.70135 9.27464 1.71288 9.31287C1.72441 9.3511 1.74643 9.3868 1.77735 9.41738C1.80826 9.44797 1.8473 9.47266 1.89163 9.48969C1.93596 9.50671 1.98447 9.51563 2.03364 9.5158H16.1075C16.1566 9.51563 16.2052 9.50671 16.2495 9.48969C16.2938 9.47266 16.3329 9.44797 16.3638 9.41738C16.3947 9.3868 16.4167 9.3511 16.4282 9.31287C16.4398 9.27464 16.4405 9.23483 16.4304 9.19634L14.5607 2.22262C14.4934 1.97917 14.3247 1.76121 14.0823 1.6044C13.8399 1.44758 13.5382 1.36121 13.2264 1.3594H4.9147Z" fill="#FD8935"/>
<path d="M9.92044 10.0256H8.2207V19.7113H9.92044V10.0256Z" fill="#FD8935"/>
<path d="M12.4701 19.0316H5.6711C5.20173 19.0316 4.82123 19.3359 4.82123 19.7113C4.82123 20.0867 5.20173 20.391 5.6711 20.391H12.4701C12.9394 20.391 13.3199 20.0867 13.3199 19.7113C13.3199 19.3359 12.9394 19.0316 12.4701 19.0316Z" fill="#FD8935"/>
<path d="M5.67105 10.8752C5.67105 10.4998 5.29055 10.1955 4.82118 10.1955C4.35181 10.1955 3.97131 10.4998 3.97131 10.8752V11.5549C3.97131 11.9303 4.35181 12.2346 4.82118 12.2346C5.29055 12.2346 5.67105 11.9303 5.67105 11.5549V10.8752Z" fill="#FD8935"/>
<path d="M16.1075 10.1955H2.03362C1.85753 10.1956 1.68365 10.1642 1.5247 10.1035C1.36575 10.0429 1.22575 9.95466 1.11495 9.84519C1.00415 9.73573 0.925355 9.60784 0.884323 9.47088C0.843291 9.33392 0.841064 9.19136 0.877803 9.05362L2.74752 2.0799C2.85433 1.6836 3.12765 1.32851 3.52196 1.07376C3.91627 0.818997 4.40778 0.679934 4.91468 0.679718H13.2264C13.7333 0.679934 14.2248 0.818997 14.6191 1.07376C15.0134 1.32851 15.2868 1.6836 15.3936 2.0799L17.2633 9.04683C17.3015 9.18504 17.3004 9.32835 17.26 9.46616C17.2197 9.60398 17.1411 9.73279 17.0301 9.84306C16.9192 9.95334 16.7787 10.0423 16.6189 10.1033C16.4592 10.1643 16.2844 10.1958 16.1075 10.1955Z" fill="#FD8935"/>
</svg>
