<svg width="24" height="21" viewBox="0 0 24 21" fill="none" xmlns="http://www.w3.org/2000/svg">
<path d="M22.0966 0H1.69974C1.24894 0 0.816605 0.179079 0.497842 0.497842C0.179079 0.816605 0 1.24894 0 1.69974V15.2976C0 15.7484 0.179079 16.1808 0.497842 16.4995C0.816605 16.8183 1.24894 16.9974 1.69974 16.9974H9.34856V18.6971H7.64882C7.42342 18.6971 7.20726 18.7867 7.04788 18.946C6.88849 19.1054 6.79895 19.3216 6.79895 19.547C6.79895 19.7724 6.88849 19.9886 7.04788 20.1479C7.20726 20.3073 7.42342 20.3969 7.64882 20.3969H16.1475C16.3729 20.3969 16.5891 20.3073 16.7485 20.1479C16.9078 19.9886 16.9974 19.7724 16.9974 19.547C16.9974 19.3216 16.9078 19.1054 16.7485 18.946C16.5891 18.7867 16.3729 18.6971 16.1475 18.6971H14.4478V16.9974H22.0966C22.5474 16.9974 22.9797 16.8183 23.2985 16.4995C23.6173 16.1808 23.7963 15.7484 23.7963 15.2976V1.69974C23.7963 1.24894 23.6173 0.816605 23.2985 0.497842C22.9797 0.179079 22.5474 0 22.0966 0ZM1.69974 1.69974H22.0966V12.748H1.69974V1.69974ZM12.748 18.6971H11.0483V16.9974H12.748V18.6971ZM1.69974 15.2976V14.4478H22.0966V15.2976H1.69974Z" fill="#FD8935"/>
<rect x="1.43414" y="0.0142822" width="20.8218" height="14.554" fill="#FD8935"/>
</svg>
